<svg xmlns="http://www.w3.org/2000/svg" width="548.165" height="548.165" viewBox="0 0 548.165 548.165"><path d="M526.76 131.045c-14.277-14.274-31.498-21.413-51.675-21.413h-63.953l-14.558-38.826c-3.618-9.325-10.23-17.368-19.846-24.128-9.613-6.757-19.462-10.138-29.55-10.138H200.995c-10.088 0-19.94 3.38-29.552 10.138-9.613 6.76-16.225 14.803-19.842 24.128l-14.56 38.826H73.09c-20.18 0-37.402 7.14-51.68 21.413C7.138 145.32 0 162.545 0 182.72v255.814c0 20.178 7.137 37.404 21.41 51.675 14.278 14.276 31.5 21.415 51.68 21.415h401.988c20.177 0 37.397-7.14 51.675-21.416 14.273-14.272 21.412-31.498 21.412-51.676V182.72c.004-20.176-7.135-37.4-21.405-51.675zM364.446 400.993c-25.03 25.03-55.147 37.548-90.362 37.548s-65.33-12.517-90.362-37.547c-25.03-25.026-37.544-55.15-37.544-90.358 0-35.218 12.517-65.333 37.544-90.364 25.028-25.03 55.148-37.543 90.362-37.543s65.333 12.516 90.362 37.544c25.03 25.03 37.545 55.147 37.545 90.365 0 35.207-12.513 65.33-37.544 90.358z"/><path d="M274.084 228.403c-22.65 0-42.018 8.042-58.102 24.128-16.084 16.085-24.126 35.45-24.126 58.105 0 22.647 8.042 42.014 24.126 58.098 16.084 16.08 35.45 24.123 58.102 24.123 22.648 0 42.017-8.042 58.1-24.123 16.085-16.084 24.128-35.45 24.128-58.098 0-22.655-8.043-42.02-24.127-58.104-16.083-16.084-35.453-24.127-58.1-24.127z"/></svg>