<svg xmlns="http://www.w3.org/2000/svg" viewBox="0 0 487.582 487.582"><path d="M323.28 118.214c-32.65 0-61.077 17.998-75.935 44.59-14.92-26.592-43.31-44.59-75.963-44.59-48.06 0-87.008 38.957-87.008 87.01 0 99.775 162.97 200.895 162.97 200.895S410.29 305.474 410.29 205.222c0-48.052-38.966-87.01-87.01-87.01z"/><path d="M243.79 0C109.15 0 0 109.15 0 243.79s109.15 243.79 243.79 243.79 243.792-109.15 243.792-243.79S378.432 0 243.792 0zm0 455.075c-116.497 0-211.28-94.777-211.28-211.285 0-116.507 94.783-211.284 211.28-211.284 116.5 0 211.288 94.777 211.288 211.284 0 116.508-94.787 211.285-211.287 211.285z"/></svg>