<svg id="Layer_1" xmlns="http://www.w3.org/2000/svg" viewBox="-280 247.7 136.2 168.3"><style>.st0{display:none;fill:#FFFFFF;}</style><path d="M-211.8 416c-12.9-23.5-32.1-40.1-49.4-58.3-17.3-18.1-23.5-39.9-15.1-64 8.8-25.1 27-40.7 53.3-45 38.4-6.4 73.4 19.5 78.7 57.6 2.3 16.6-2.6 31.6-12.6 45-1.9 2.5-3.9 5-6.2 7.2-17.5 17.5-35.9 34.2-48.7 57.5zm-29.8-99.8c-.1 16.3 13.4 30 29.8 29.9 16.2 0 29.6-13.3 29.8-29.5.1-16.3-13.5-29.9-29.9-29.9-16.2 0-29.6 13.3-29.7 29.5z"/><path class="st0" d="M-241.6 316.2c.1-16.2 13.5-29.5 29.7-29.5 16.4 0 30 13.6 29.8 29.9-.2 16.2-13.6 29.5-29.8 29.5-16.3 0-29.9-13.6-29.7-29.9z"/></svg>