<svg xmlns="http://www.w3.org/2000/svg" viewBox="0 0 402.8 401.3"><path d="M313.1 401.2c-25-1.1-43.8-5.2-62-12-53.5-20.2-98.4-53.1-138.8-93-31-30.6-58.8-63.6-80.3-101.6C17.4 168.4 6.2 140.9 1.8 111 1 105.3.2 99.5 0 93.8-.5 81 4.4 70.3 13.5 61.2c18-17.8 35.8-35.8 53.9-53.6 3-3 6.8-5.6 10.7-7.1 2.6-1 6.3-.5 9 .5 6.4 2.5 10.7 7.4 14 13.6 14.5 27.7 29.3 55.3 43.9 83 4.6 8.7 2.8 19.9-4.5 27.7-6.2 6.5-12.6 12.9-19.1 19.1-4.1 3.9-5.2 7.7-3.3 13.4 6.9 19.7 18.4 36.6 32 52 19.8 22.4 40.6 43.8 66.1 59.9 8 5 16.6 9.2 25.2 13.1 6.3 2.9 12.3 2.6 17.5-3.5 5.8-6.8 12.5-13 18.9-19.3 9.6-9.5 22.6-11.3 34.3-4.5 26 15.1 52 30.4 77.9 45.8 7.5 4.5 14.4 10.3 12.4 20.1-1 4.8-4.2 9.8-7.7 13.4-14.4 14.8-29.3 29.1-44 43.6-2.6 2.6-5.3 5.1-7.8 7.7-9.5 10.2-20.9 16.2-29.8 15.1z"/></svg>