<svg xmlns="http://www.w3.org/2000/svg" width="896" height="896" viewBox="0 0 896 896"><path d="M439.473 217.475l1.06 1.756 2.09.657 1.883.046c4.42-11.807-5.855-11.807-14.05-13.305l-4.13.888.695 3.135 12.453 6.825zm100.625 15.66l1.69.244C546 231 551.25 236.25 553 229.25c-5.25 0-8.75-1.75-14 0 0 0 0 3.5 1.098 3.885zm-37.694-3.798l6.346-.103c-1.25-5.234-13.5-8.734-13.5-1.734-1.75 1.75 3.5 1.75 7.154 1.837zM378 129.5c-3.5 5.25-3.5-3.5-6.915-1.09l-1.46.694C364 136.5 350 138.25 351.75 150.5 364 148.75 371 140 378 129.5zm42.91 64.98c-8.976-4.49-8.976 4.487-10.067 12.08l2.83 2.944c7.237-1.56 11.725-10.537 7.237-15.025zm-37.66-70.23c0 1.33-1.016 3.673-2.27 5.49 1.79-1.277 4.02.113 4.02 1.51 0 7-10.5 1.75-10.5 8.75 1.75 0 3.5 0 1.75 1.75s-5.25 1.75-7 3.5h7c-.876 2.625-3.94 3.062-6.563 3.938-2.625.873-4.812 2.162-3.938 6.504 2.187-1.7 4.594-2.786 7.108-3.524 7.547-2.215 16.078-1.23 22.64-5.168-1.75 0-1.75-1.75-3.5-1.75 3.5-1.75 7-3.5 5.25-8.75-1.75 0-1.75 1.75-3.5 1.75 3.5-7-3.5-15.75 3.436-20.33l1.458-2.298c-1.392-.122-4.892-.122-6.642-.122 1.75-1.75 3.5-1.75 5.25-3.5-8.75 0-12.25 8.75-19.25 12.25 1.75 3.5 5.25-1.75 5.25 0zm-3.5 7c.42-.42.837-.94 1.23-1.51-.452.32-.877.804-1.23 1.51zm406.22 205.187l-3.974-1.357-1.623 2.61-.088 5.603.207 1.998.81.52 1.845-1.445 1.906-.498.926 1.54 1.647 5.227 3.22 6.064 1.73.18-1.8-9.64.79.02.905.925.633-.333-.068-2.175-1.11-5.424-3.347-10.89-1.688-1.21.156 3.144.332 3.357-.455 1.604-.956.183zm-1.66 62.26l2.786.695 2.525-.925 1.563-2.973 1.148-4.033-.82-1.13c-3.286 1.143-7.743 2.41-11.065 3.434l-2.21 3.216-.82 5.134.036 5.742-.792 6.207-1.39 5.792-.255 5.19.924 4.865.38 5.694-.323 5.85.604 4.11 1.875.17 1.18-5.354-.557-10.796 1.062-3.102 1.22 3.208.808 4.207 2.148 2.257 2.182-2.518.086-6.272-2.283-7.15-.097-2.303.844-2.5 2.574-5.19-.204-3.115-2.387 1.52-2.39 2.646-2.11-1.55-.683-5.404 1.617-5.02 2.827-.6zm4.32 57.142l-1.913.074-5.93 3.265-3.975-.856-1.877 2.04-.748 3.926 1.564 1.88 6.245-1.685 7.234-6.448-.6-2.198zm-11.913-4.617l-7.732.23-3.816-.496-2.69 3.113 2.77 4.17 5.898.727 1.895-.832 3.47-4.655c.067-.756.135-1.506.204-2.257zm20.623-74.31l-.775-3.09-.697 1.476-.215 4.418-.02 4.706.47 8.716-.07 4.417.284 4.188.486 1.072.516-.376.196-1.99-.115-2.23-.058-4.198.852-2.418 1.018-1.382.385-3.47-1.725-5.315-.532-4.523zm-6.53 84.367l-4.202 4.69-2.115 3.39-1.008 5.317 1.254 2.937 2.11-1.48 3.992-6.733 8.066-10.2-4.316-.03-3.783 2.11zm20.524-54.987l-.61.52-.62 4.568-.652 5.494-.79 2.468-.663-2.08-.23-5.543.258-6.348.096.005-.697-4.624-1.107-2.407-.57.152-1.162 1.552-2.648-.282-.676.508-.31 2.302.28 2.39 1.002 5.21.23.274.183.482.208.35.428.337.174.452.184.98.215.78 1.903-.07.287.53-.22 1.935-.42 1.426-.75.13-.308.71.006 2.502.045.825.105.79.035.927-.094 3.393.02 1.475.29.25.366-.684.375-3.236.36-1.053.354-.58.336-.06.332.45.125 1.59.053 2.6-.03 1.035 1.634.566.232 1.372.146.15.078.642.027.566.05.332.147-.016.012 1.085.055.74-.604 6.988-.357 4.482-.255 2.37-.166 1.175-.128 1.08.037.402-.09.93-.517.612-.31.693-.413 2.094-.453 4.104.098 1.705.22-.388.392-2 .293-1.154.105.115.018 1.223-.662 4.32-.24 1.756-.073.65.115-.604c3.053-16.695 4.95-33.574 5.688-50.507l-.776-7.902zm-47.4-111.814l2.535 6.62.397 6.156 1.13 3.76 1.77 2.7 1.004-.48-.333-6.063.42-2.625 2.7.373 2.942 2.102 1.097-3.35-2.164-5.33-3.2.09-3.76-2.903-2.507-7.163-1.43-9.067-3.102-6.605-3.7-4.138-1.27-.283-.454 1.448.783 3.047 1.018 3.148 1.15 6.056 1.67 6.222 3.304 6.283zm11.712 19.024l-.81 1.23-.013 1.47.906 4.664 1.167.7 1.043-.584.574-.248.254-1.016-.273-1.63-.398-1.676-1.133-2.205-1.318-.706zm5.108.487l2.445 10.65.99 1.207.552-.82-.482-2.497-.77-2.758-.537-2.728.068-2.14-.183-1.446-.385-1.535-1.273-2.206-1.09-.595-.985-.017-.406 1.528.93 1.863 1.124 1.495zm-17.4 114.095l3.76-2.79 1.583-7.016c.004-1.802-.006-3.6-.023-5.397l.557-2.344 1.778-4.767.65-3.05.656-6.23 1.992-3.606 1.477-3.965-.775-3.32-3.36-5.646L770 376.25l.93-6.62 2.11-5.847-1.276-4.693-8.55-6.95-2.89 3.314-.848 9.936-.463 1.028c2.045 20.184 2.885 40.56 2.525 60.886l1.817.78zM686.472 540.04l-2.825-6.163-6.117-.624-3.922 2.517-1.934 3.965-16.15 20.407-17.188 9.625-2.66 3.08-1.95 3.552-.948 3.467 1.057 22.562-8.266 20.928-.748 3.625-.62 7.453.564 3.114 6.453 7.307 9.54 1.578 9.85-7.153 5.32-16.505 21.095-43.834 6.22-27.1 1.538-3.15 1.107-3.326.275.395c.217-1.88.426-3.76.623-5.643l-.332 1.036.018-1.117zM498.044 87.5l5.637-.002c-1.602 0-4.196 0-5.637.002zM448 0C200.565 0 0 200.567 0 448c0 247.406 200.566 448 448 448 247.406 0 448-200.594 448-448C896 200.567 695.406 0 448 0zm0 816.266c-78.196 0-150.684-24.387-210.313-65.94-.07-.126-.112-.24-.094-.303.03-.11.298-.165.592-.12.294.046.585.013.647-.07.063-.088-.4-.526-1.033-.98-.63-.452-1.728-1.118-2.437-1.48-.708-.35-1.608-.746-2-.862-.272-.08-1.245-.483-2.437-1.01-19.57-14.302-37.68-30.48-54.054-48.283-.22-.378-.497-.794-.81-1.196-.702-.893-1.832-2.04-2.513-2.552-.06-.045-.123-.082-.185-.125-1.983-2.22-3.94-4.46-5.87-6.727.953-.174 1.404-.868 1.007-1.76-.486-1.1-2.06-3.403-3.492-5.13 1.61-.61 5.275-.616 7.113-4.12 1.85-10.504-3.634-17.494-7.284-26.24 1.83-.002 3.66 1.744 5.49 3.492 3.215-5.258 4.83-10.617 5.496-16.062.334-2.723.43-5.464.366-8.223-.295-15.98-13.098-29.958-9.41-43.965 5.534-21.01 16.562-40.28 20.653-62.33.97-2.03 2.097-4.012 3.205-5.997 2.215-3.974 4.347-7.98 4.94-12.488.72-2.77 1.083-7.563.767-10.662-.318-3.095-.98-6.727-1.466-8.073-.487-1.345-1.522-3.35-2.297-4.455-.773-1.106-5.72-4.833-10.99-8.274-5.268-3.443-9.613-6.27-9.655-6.28-.044-.012-.092-.114-.11-.226s-.248-.49-.512-.84-.624-.948-.8-1.337c-.175-.384-.473-.72-.66-.746-.188-.024-.5-.026-.694-.003-.195.022-.533-.043-.755-.146-.22-.104-.566-.33-.767-.496-.2-.17-.986-.424-1.746-.57-.758-.144-1.625-.476-1.925-.732-.3-.258-.697-.482-.882-.496-.186-.014-.486.012-.668.065-.182.05-2.837.028-5.9-.04-3.06-.07-5.807.022-6.102.205-.293.188-.584 1.013-.647 1.83s-.36 1.643-.658 1.824c-.302.185-.818.34-1.147.35-.332.006-.746-.26-.924-.588 1.645-8.97-5.666-19.458-14.834-15.94l-.01 5.25c-7.326-1.738 1.848-8.754-3.645-10.496-7.326-1.738-3.676 7.006-9.177 8.767 7.357-15.764 5.55-29.76-3.59-43.748-5.475-12.24-20.124-17.468-20.44-33.634-.615-1.88-1.48-3.75-1.92-4.16-.44-.41-1.58.026-2.527.97-.948.94-1.948 1.705-2.224 1.697-.275-.007-.5-.528-.495-1.16 0-.63.33-3.012.73-5.297.09-.52.165-1.027.226-1.51 37.7-163.354 184.055-285.13 358.864-285.13 19.306 0 38.263 1.492 56.763 4.355-3.383.85-6.604 1.983-9.508 3.436-1.54.385-3.072.786-4.61 1.466-.726.17-1.505.285-2.397.285 3.092 1.032 5.576-.368 7.818-1.69-.574.053-1.098.16-1.604.282.378-.105.743-.242 1.13-.34h.566l.463-.27c.07-.02.142-.04.214-.058 2.352-.547 4.758-.984 7.164-1.422 1.78 0 3.56.45 5.11.434-1.413.774-2.823 1.485-4.235 2.19C502.25 89.25 500.5 91 497 92.75h5.25l-3.5 3.5h1.75c-5.25 1.75-8.75 1.75-14 1.75 1.75-3.5 7 0 10.5-3.5-15.75 0-29.75 3.5-45.28 7.584-2.33.833-4.626 1.747-6.89 2.744-2.717 1.196-5.386 2.514-8.002 3.957-6.33 3.215-16.83 8.465-13.33 11.965s7 4.375 10.5 5.688c1.75.656 3.5 1.422 5.234 2.68 1.767 2.133 3.517 3.883 5.267 5.633 10.5 1.75 19.25-10.5 10.5-19.25 2.625-1.75 4.812-4.375 7.22-6.78 2.405-2.407 5.03-4.595 8.53-5.47-5.25 1.75-5.25 8.75-3.5 10.5 3.5 2.625 7.438.875 11.594-1.094 4.156-1.97 8.53-4.156 12.906-2.406-1.312 1.312-3.61 2.188-6.18 2.953-2.572.765-5.414 1.422-7.82 2.297-5.25 0-7 7-3.5 10.5-1.75-1.75-5.25-1.75-7-1.75-1.75 17.5-22.75 19.25-35 12.25 1.75 0 5.25 1.75 7-1.75 0-3.5-1.75-3.5-5.25-1.75v-5.25c-7-1.75-7 7-7 12.25-1.75 0-5.25-1.75-7-1.75-14.584 10.208-27.95 15.555-43.143 21.105-3.04 1.11-6.15 2.22-9.358 3.29 8.75 3.605 8.75 19.355 0 17.605-22.75-7-49-12.25-52.5 15.75 0 3.5-5.25 8.75-1.75 12.25 14 10.5 33.248 10.5 48.998 3.5 5.25-1.75 8.75-10.5 15.036-12.204 2.652-1.147 5.322-2.305 7.72-3.942 2.37-1.664 4.473-3.81 5.967-6.96 3.012-2.492 6.372-3.802 9.987-4.573 3.616-.77 7.49-1 11.534-1.33 2.696-.22 5.47-.483 8.29-.973 11.47 10.733 30.702 23.762 37.702 39.512 1.75-5.25 6.754-12.36 13.754-5.36-7-12.25-32.986-23.42-34.736-40.92 17.5 12.25 35 21 47.25 42 1.75 1.75 7 3.5 10.5 1.75 5.246-3.5 3.938-6.125 2.188-8.75s-3.938-5.25-.438-8.75c1.75-3.5 3.062-2.625 4.525-.38C512.75 225.75 546 213.5 558.25 224c17.5 14-10.5 31.5-31.5 28-12.25-3.5-22.75-5.25-32.506-8.94l-6.264-1.7c-2.44-.204-5.605.18-7.035.854-1.428.672-2.994 2.47-3.47 3.99-.48 1.522-.843 3.594-.806 4.604.032 1.01-.97 2.49-2.228 3.292-1.266.798-4.63.246-7.48-1.23-2.857-1.474-5.85-2.852-6.652-3.06-.8-.21-4.254-1.85-7.676-3.647-1.71-.897-4.058-1.845-6.458-2.65-12.18-.262-26.18-9.012-19.18-23.012-11.374-4.374-23.624-5.25-35.654-3.718-3.008.383-6.007.91-8.99 1.558C365.75 224 350 224 332.5 224c-12.25 0-21 14-26.568 25.168-1.323 1.96-2.755 3.825-4.274 5.596-6.074 7.084-13.406 12.783-21.405 15.875-3.33 1.66-6.39 3.54-9.205 5.617-22.522 16.602-29.426 45.638-35.94 73.217-.635.974-1.463 2.547-1.836 3.494-.375.948-.503 3.22-.285 5.048.22 1.827.114 4.894-.233 6.812-.346 1.92-.65 4.255-.673 5.19-.022.937.357 2.133.844 2.655.488.525 1.49 1.006 2.226 1.07 2.463 2.376 4.42 5.034 6.08 7.82 1.658 2.786 3.02 5.7 4.286 8.617 13.484 45.57 64.234 42.07 100.04 27.83 2.937-.62 5.844-1.236 8.647-1.832l8.034-1.7c6.166.816 11.368 2.085 11.556 2.82.186.733.603 1.695.92 2.138.317.443.913 1.104 1.32 1.468.408.364.978 1.046 1.268 1.515.288.467.69 1.273.9 1.79.204.516 1.14 1.49 2.077 2.163.936.675 5.522 1.153 10.177 1.078 6.793-.448 10.293 3.052 13.793 8.302 7 15.75-5.25 33.25 9.68 44.976.692.646 2.173 2.6 3.997 5.225 1.824 2.627 3.996 5.928 6.07 9.265 4.15 6.682 8.158 16.51 8.903 21.84.75 5.33 2.2 11.092 3.23 12.805 1.024 1.71 1.366 5.955.755 9.438-.31 1.742-.986 4.008-1.857 6.272-8.027 10.933-13.277 24.933-11.527 37.183 7 21 21 40.25 25.298 62.188l.014 2.378c.602 1.876 1.715 3.937 2.48 4.577.767.644 1.622 1.488 1.9 1.876.278.393.808.97 1.17 1.278.366.313.804.635.968.716.164.082 1.236 2.037 2.383 4.347 1.146 2.307 3.3 5.693 4.782 7.523s3.217 5.282 3.846 7.672c.633 2.392.84 4.8.46 5.355-.374.558-.788 1.562-.915 2.236-.127.677-.004 1.915.277 2.76.28.84 1.572 2.748 2.873 4.234 1.303 1.49 3.07 3.228 3.928 3.864.856.634 3.587 1.25 6.065 1.36 2.48.114 5.238.008 6.135-.236.893-.244 2.22-.98 2.94-1.643.724-.662 1.862-1.918 2.532-2.797.67-.877 8.996-1.86 18.504-2.188 8.523-4.113 19.887-9.6 28.406-13.716 4.777-4.91 9.406-10.448 10.29-12.305.878-1.857 4.06-5.146 7.073-7.305 3.012-2.158 5.96-6.6 6.553-9.868.588-3.266 2.035-7.015 3.207-8.323 4.084-4.99 12.834-4.99 12.834-10.24 3.5-19.25 10.5-35 23.366-51.374 1.658-2.734 3.244-5.512 4.74-8.328 8.986-16.896 14.756-35.192 13.422-54.16-.736-2.163-1.418-4.272-1.98-6.338-10.093-37.207 20.368-60.007 55.655-75.378.896-2.187 1.803-4.506 2.725-6.914 2.748-7.225 5.605-15.254 8.307-22.924l2.635-7.506c4.88-5.077 3.13-12.077 3.13-17.327-10.5 5.25-21 3.5-31.07 5.44-2.358.195-4.628.386-6.72.562-1.73-.452-3.754-1.187-4.498-1.635-.746-.447-5.814-3.28-11.088-5.678-4.812-2.19-5.742-4.787-9.19-7-1.722-1.11-4.552-7.917-6.56-9.626-2.012-1.708-5.244-6.386-6.562-7.875-6.354-8.645-11.812-16.19-17.062-26.69-7-10.5-15.75-21-21.72-33.465-1.683-2.27-3.42-4.497-5.2-6.682-1.783-2.185-3.61-4.325-5.477-6.42-4.354-4.182-6.104-5.932-9.2-9.525-1.255-1.054-.76-2.59 1.104-3.415C567 259 563.5 274.75 572.2 273.905c1.98 1.965 3.92 3.968 5.825 6.004 1.904 2.036 3.777 4.105 5.62 6.204 2.458 2.798 4.866 5.648 7.24 8.54C600.25 306.25 609 318.5 618.19 330.613c1.118 1.226 2.577 3.423 4.026 5.977 1.445 2.554 2.885 5.463 3.965 8.11 5.567 31.55 40.567 15.8 59.817 8.8 10.5-5.25 22.75-10.5 24.5-22.75 5.25-24.5-14-38.5-29.75-52.5-1.75 14-17.5 14-22.55 3.505-1.513-1.754-2.825-3.504-3.7-5.254 0 1.75-1.75 3.5-1.75 5.25-3.5-8.75-10.5-17.5-15.75-24.5 8.75 0 15.75 5.25 25.238 9.39 2.896 1.293 5.787 2.595 8.688 3.883C688.31 278.25 705.95 285.6 728 283.5c4.374-.875 7 2.625 8.53 7.656.766 2.516 1.258 5.414 1.562 8.335.303 2.92.44 5.86.494 8.466 1.967-2.742 3.738-5.61 5.29-8.578 1.546-2.97 2.854-6.03 3.938-9.163 6.086-17.56 5.168-37.348.104-55.974C790.94 294.513 816.264 368.297 816.264 448c.002 203.385-164.88 368.268-368.265 368.268zM500.5 85.75c-1.203.602-2.402.99-3.605 1.32 1.246-.722 2.425-1.32 3.605-1.32zm-4.342 1.75c-.03.02-.064.038-.096.057.3-.028.604-.057.938-.057h-.842z"/></svg>